HIERARCHY
ROOT Hips
{
	OFFSET 0.00000 0.00000 0.00000
	CHANNELS 6 Xposition Yposition Zposition Zrotation Yrotation Xrotation 
	JOINT LHipJoint
	{
		OFFSET 0 0 0
		CHANNELS 3 Zrotation Yrotation Xrotation
		JOINT LeftUpLeg
		{
			OFFSET 1.75344 -1.53157 0.77399
			CHANNELS 3 Zrotation Yrotation Xrotation
			JOINT LeftLeg
			{
				OFFSET 2.25415 -6.19323 0.00000
				CHANNELS 3 Zrotation Yrotation Xrotation
				JOINT LeftFoot
				{
					OFFSET 2.30342 -6.32861 0.00000
					CHANNELS 3 Zrotation Yrotation Xrotation
					JOINT LeftToeBase
					{
						OFFSET 0.10958 -0.30108 1.49206
						CHANNELS 3 Zrotation Yrotation Xrotation
						End Site
						{
							OFFSET 0.00000 -0.00000 0.77783
						}
					}
				}
			}
		}
	}
	JOINT RHipJoint
	{
		OFFSET 0 0 0
		CHANNELS 3 Zrotation Yrotation Xrotation
		JOINT RightUpLeg
		{
			OFFSET -1.81912 -1.53156 0.77399
			CHANNELS 3 Zrotation Yrotation Xrotation
			JOINT RightLeg
			{
				OFFSET -2.22882 -6.12365 0.00000
				CHANNELS 3 Zrotation Yrotation Xrotation
				JOINT RightFoot
				{
					OFFSET -2.21943 -6.09785 0.00000
					CHANNELS 3 Zrotation Yrotation Xrotation
					JOINT RightToeBase
					{
						OFFSET -0.18931 -0.52012 1.59379
						CHANNELS 3 Zrotation Yrotation Xrotation
						End Site
						{
							OFFSET -0.00000 -0.00000 0.84686
						}
					}
				}
			}
		}
	}
	JOINT LowerBack
	{
		OFFSET 0 0 0
		CHANNELS 3 Zrotation Yrotation Xrotation
		JOINT Spine
		{
			OFFSET -0.00200 1.66634 -0.14248
			CHANNELS 3 Zrotation Yrotation Xrotation
			JOINT Spine1
			{
				OFFSET -0.00875 1.64542 0.09514
				CHANNELS 3 Zrotation Yrotation Xrotation
				JOINT Neck
				{
					OFFSET 0 0 0
					CHANNELS 3 Zrotation Yrotation Xrotation
					JOINT Neck1
					{
						OFFSET 0.02257 1.59605 0.00839
						CHANNELS 3 Zrotation Yrotation Xrotation
						JOINT Head
						{
							OFFSET -0.10214 1.57530 -0.23335
							CHANNELS 3 Zrotation Yrotation Xrotation
							End Site
							{
								OFFSET -0.03588 1.60717 -0.08062
							}
						}
					}
				}
				JOINT LeftShoulder
				{
					OFFSET 0 0 0
					CHANNELS 3 Zrotation Yrotation Xrotation
					JOINT LeftArm
					{
						OFFSET 2.54983 1.10186 0.40078
						CHANNELS 3 Zrotation Yrotation Xrotation
						JOINT LeftForeArm
						{
							OFFSET 4.28840 -0.00000 0.00000
							CHANNELS 3 Zrotation Yrotation Xrotation
							JOINT LeftHand
							{
								OFFSET 3.06552 -0.00000 -0.00000
								CHANNELS 3 Zrotation Yrotation Xrotation
								JOINT LeftFingerBase
								{
									OFFSET 0 0 0
									CHANNELS 3 Zrotation Yrotation Xrotation
									JOINT LeftHandIndex1
									{
										OFFSET 0.75304 -0.00000 0.00000
										CHANNELS 3 Zrotation Yrotation Xrotation
										End Site
										{
											OFFSET 0.60712 -0.00000 0.00000
										}
									}
								}
								JOINT LThumb
								{
									OFFSET 0 0 0
									CHANNELS 3 Zrotation Yrotation Xrotation
									End Site
									{
										OFFSET 0.61639 -0.00000 0.61639
									}
								}
							}
						}
					}
				}
				JOINT RightShoulder
				{
					OFFSET 0 0 0
					CHANNELS 3 Zrotation Yrotation Xrotation
					JOINT RightArm
					{
						OFFSET -2.60909 1.35448 0.21802
						CHANNELS 3 Zrotation Yrotation Xrotation
						JOINT RightForeArm
						{
							OFFSET -4.52172 -0.00000 -0.00000
							CHANNELS 3 Zrotation Yrotation Xrotation
							JOINT RightHand
							{
								OFFSET -2.89140 -0.00000 0.00000
								CHANNELS 3 Zrotation Yrotation Xrotation
								JOINT RightFingerBase
								{
									OFFSET 0 0 0
									CHANNELS 3 Zrotation Yrotation Xrotation
									JOINT RightHandIndex1
									{
										OFFSET -0.68054 -0.00000 0.00000
										CHANNELS 3 Zrotation Yrotation Xrotation
										End Site
										{
											OFFSET -0.54867 -0.00000 0.00000
										}
									}
								}
								JOINT RThumb
								{
									OFFSET 0 0 0
									CHANNELS 3 Zrotation Yrotation Xrotation
									End Site
									{
										OFFSET -0.55705 -0.00000 0.55705
									}
								}
							}
						}
					}
				}
			}
		}
	}
}
MOTION
Frames: 12
Frame Time: .0083333
8.7653 15.5045 23.3388 0 0 0 0 0 0 -21 0 0 0 0 0 0 0 0 0 0 0 0 0 0 21 0 0 0 0 0 0 0 0 0 0 0 0 0 0 0 0 0 0 0 0 0 0 -16 0 0 21 0 0 11 0 0 0 -8 0 0 0 0 0 0 0 0 0 0 0 0 0 0 0 0 0 0 0 0 8 0 0 0 0 0 0 0 0 0 0 0 0 0 0 0 0 0
8.7653 15.5045 23.3388 -179.1700 3.7148 -178.0180 0.0000 0.0000 0.0000 -23.9269 -21.5411 -0.3576 1.6460 8.0862 22.9763 1.3894 10.5146 -28.2937 2.6616 -10.1259 -29.3854 0.0000 0.0000 0.0000 25.0895 15.0718 -2.6295 -1.6045 -7.9886 22.6793 0.0620 -17.7077 -24.5361 -0.0534 -1.4910 4.1009 1.0379 1.0725 9.3133 -0.0191 1.5718 -2.8362 -0.8601 0.7150 -8.2084 -3.8303 -1.6184 -10.8522 4.5952 -2.0320 14.3319 1.9299 -0.7282 6.2194 -0.0000 -0.0000 0.0000 -84.0418 13.5332 11.3787 20.4121 -31.1356 -5.7429 -0.0000 -0.0000 12.0553 10.9354 -34.1651 -6.1925 -7.1250 0.0000 -0.0000 -11.9035 -4.0166 12.9833 -0.0000 -0.0000 0.0000 82.9989 -17.5176 22.7272 -26.0826 37.2902 -8.9376 0.0000 0.0000 15.9480 -12.4440 -47.7810 9.2814 7.1250 -0.0000 -0.0000 49.0486 -73.5595 -35.2222
8.7619 15.5076 23.3362 -179.2340 3.7953 -177.9990 0.0000 0.0000 0.0000 -24.0444 -21.6382 -0.1835 1.6138 8.0106 22.7463 1.3716 10.6862 -28.3040 2.5911 -10.0017 -28.9823 0.0000 0.0000 0.0000 24.9991 15.0043 -2.8238 -1.6392 -8.0703 22.9277 0.0692 -17.7044 -24.4659 -0.0344 -1.1972 3.2916 1.0562 1.0691 8.9659 -0.0910 1.5562 -2.6592 -0.9326 0.7083 -7.8144 -3.8502 -1.5846 -10.9321 4.7117 -2.0025 14.2220 1.9717 -0.7085 6.1983 -0.0000 -0.0000 0.0000 -83.5605 13.1426 11.0792 20.1544 -30.8279 -5.6102 -0.0000 -0.0000 12.4729 10.6808 -33.9664 -6.0153 -7.1250 0.0000 -0.0000 -12.0259 -3.7850 13.0771 -0.0000 -0.0000 0.0000 82.8010 -17.2868 23.0059 -26.2185 37.4236 -9.0201 0.0000 0.0000 15.9803 -6.8381 -52.7822 5.4549 7.1250 -0.0000 -0.0000 68.4533 -73.7266 -51.9785
8.7593 15.5122 23.3361 -179.2690 3.9173 -177.9740 0.0000 0.0000 0.0000 -24.1255 -21.7409 -0.0748 1.5970 7.9707 22.6251 1.3488 10.9037 -28.3170 2.5640 -9.9534 -28.8260 0.0000 0.0000 0.0000 24.9286 14.9011 -3.0169 -1.6644 -8.1289 23.1062 0.0568 -17.5973 -24.4248 -0.0212 -0.9402 2.5844 0.9066 1.0990 9.4254 -0.0485 1.5926 -2.9680 -0.8255 0.7293 -8.4181 -3.9787 -1.5570 -10.7812 4.8136 -1.9519 14.4383 2.0326 -0.6759 6.2406 -0.0000 0.0000 0.0000 -83.2269 13.4999 10.9257 19.9203 -30.5462 -5.4908 -0.0000 -0.0000 12.9812 10.5500 -34.2950 -5.9906 -7.1250 0.0000 -0.0000 -12.1250 -4.0868 13.2497 -0.0000 0.0000 0.0000 82.3222 -17.8399 23.4583 -26.3290 37.5317 -9.0873 0.0000 0.0000 16.4351 -7.8697 -52.5062 6.2585 7.1250 -0.0000 -0.0000 67.0125 -74.0192 -51.0003
8.7546 15.5141 23.3369 -179.2970 3.9966 -177.9450 0.0000 0.0000 0.0000 -24.1788 -21.7931 -0.0404 1.5881 7.9495 22.5607 1.3428 10.9748 -28.3321 2.5276 -9.8880 -28.6147 0.0000 0.0000 0.0000 24.8474 14.7264 -3.2115 -1.6773 -8.1588 23.1974 0.0544 -17.5107 -24.3225 -0.0118 -0.7019 1.9288 0.9045 1.0936 9.1449 -0.0565 1.5787 -2.8266 -0.8214 0.7253 -8.1026 -3.9937 -1.5337 -10.8106 4.7490 -1.9121 14.3251 2.0165 -0.6668 6.2075 0.0000 0.0000 0.0000 -82.8916 13.0986 10.5996 19.6170 -30.1782 -5.3375 -0.0000 -0.0000 13.6485 9.6177 -33.7663 -5.3805 -7.1250 0.0000 -0.0000 -12.5925 -3.4386 13.6510 0.0000 0.0000 0.0000 81.8261 -17.5094 24.0152 -26.0122 37.2208 -8.8950 0.0000 0.0000 16.9298 -8.0590 -52.6536 6.4223 7.1250 -0.0000 -0.0000 67.4108 -74.1371 -51.4930
8.7519 15.5154 23.3356 -179.2240 4.0401 -177.9570 0.0000 0.0000 0.0000 -24.1345 -21.8334 0.0315 1.5891 7.9519 22.5680 1.3670 10.8898 -28.4326 2.3934 -9.6415 -27.8233 0.0000 0.0000 0.0000 24.9215 14.6177 -3.2791 -1.6788 -8.1623 23.2082 0.0557 -17.4867 -24.2770 -0.0109 -0.6740 1.8522 0.9378 1.0526 9.4020 -0.0132 1.5383 -3.0036 -0.7967 0.7024 -8.4442 -4.0201 -1.5292 -10.8187 4.6328 -1.8759 14.6585 1.9899 -0.6516 6.3122 -0.0000 -0.0000 0.0000 -82.4495 13.3964 10.6067 19.4613 -29.9878 -5.2594 -0.0000 -0.0000 14.1446 7.8547 -33.0137 -4.2985 -7.1250 0.0000 -0.0000 -13.5108 -2.4742 14.4833 -0.0000 -0.0000 0.0000 81.2592 -17.7134 24.8338 -25.6299 36.8409 -8.6648 0.0000 0.0000 17.2037 -8.3755 -52.9549 6.7023 7.1250 -0.0000 -0.0000 68.2833 -74.3482 -52.5236
8.7521 15.5173 23.3314 -179.0770 4.1222 -178.0470 0.0000 0.0000 0.0000 -24.0449 -21.8119 0.1703 1.5975 7.9719 22.6286 1.3586 10.9857 -28.4507 2.4128 -9.6777 -27.9390 0.0000 0.0000 0.0000 25.1200 14.4956 -3.2342 -1.6732 -8.1493 23.1686 0.0381 -17.4245 -24.3479 -0.0225 -0.9674 2.6592 0.9923 1.0331 9.2324 0.0633 1.5206 -2.8785 -0.7378 0.6953 -8.2116 -4.0617 -1.5361 -10.8301 4.5679 -1.8683 14.6963 1.9768 -0.6553 6.3258 -0.0000 -0.0000 0.0000 -81.9028 13.4355 10.9074 19.3855 -29.8949 -5.2216 -0.0000 -0.0000 14.4077 7.1507 -32.7731 -3.8850 -7.1250 0.0000 -0.0000 -13.8854 -2.1541 14.8336 -0.0000 -0.0000 0.0000 80.6552 -17.7161 25.9512 -25.4340 36.6443 -8.5476 0.0000 0.0000 17.4316 -9.2013 -52.6480 7.3375 7.1250 -0.0000 -0.0000 66.8211 -74.5612 -51.4302
8.7504 15.5185 23.3294 -178.9740 4.1978 -178.1000 0.0000 0.0000 0.0000 -23.9765 -21.8124 0.2425 1.6047 7.9890 22.6808 1.3524 11.0698 -28.4747 2.4139 -9.6797 -27.9455 0.0000 0.0000 0.0000 25.2521 14.3478 -3.2636 -1.6678 -8.1368 23.1304 -0.0180 -17.2709 -24.6350 -0.0666 -1.6651 4.5810 0.9992 1.0318 9.3958 0.1470 1.5309 -2.9641 -0.6598 0.7010 -8.4011 -3.9907 -1.5738 -10.7680 4.2796 -1.8830 14.8733 1.8731 -0.6781 6.3689 0.0000 0.0000 0.0000 -81.3810 13.8286 11.6237 19.3550 -29.8574 -5.2064 -0.0000 -0.0000 14.2774 6.2640 -32.1951 -3.3470 -7.1250 0.0000 -0.0000 -14.3475 -1.4908 15.1956 0.0000 0.0000 0.0000 79.9059 -18.0958 27.4732 -25.3284 36.5378 -8.4847 0.0000 0.0000 18.1612 -9.7661 -53.0549 7.8325 7.1250 -0.0000 -0.0000 67.9914 -74.8979 -52.8689
8.7463 15.5168 23.3277 -178.9730 4.2902 -178.1200 0.0000 0.0000 0.0000 -24.0486 -21.9570 0.3750 1.6051 7.9898 22.6832 1.3582 11.1922 -28.6127 2.2976 -9.4603 -27.2460 0.0000 0.0000 0.0000 25.2462 14.1954 -3.3408 -1.6694 -8.1405 23.1415 -0.0802 -17.0560 -24.8893 -0.1182 -2.2164 6.1040 1.0654 1.0208 9.2867 0.1307 1.5214 -2.9359 -0.7098 0.6934 -8.3052 -3.8843 -1.5961 -10.7160 3.9433 -1.8789 14.9227 1.7485 -0.6975 6.3715 -0.0000 0.0000 0.0000 -80.8137 13.9650 12.5098 19.1842 -29.6469 -5.1216 -0.0000 -0.0000 13.8368 4.7589 -31.6142 -2.4988 -7.1250 0.0000 -0.0000 -15.1607 -0.7669 15.9275 -0.0000 0.0000 0.0000 79.2000 -18.1239 29.1054 -24.9822 36.1858 -8.2794 0.0000 0.0000 19.3399 -10.2699 -53.7006 8.3080 7.1250 -0.0000 -0.0000 70.1455 -75.2640 -55.2608
8.7422 15.5133 23.3226 -179.0140 4.4139 -178.1600 0.0000 0.0000 0.0000 -24.2021 -22.1210 0.5610 1.5996 7.9770 22.6442 1.3429 11.4614 -28.7256 2.2759 -9.4186 -27.1138 0.0000 0.0000 0.0000 25.1971 13.9852 -3.4231 -1.6788 -8.1623 23.2083 -0.1109 -16.8853 -24.9277 -0.1368 -2.3841 6.5683 1.0336 1.0135 9.1608 0.1514 1.5075 -2.9118 -0.6648 0.6899 -8.2076 -3.8572 -1.6119 -10.6627 3.5659 -1.8460 14.9605 1.6264 -0.7113 6.3697 0.0000 0.0000 0.0000 -80.3465 14.1310 13.3235 18.9049 -29.3004 -4.9842 -0.0000 -0.0000 13.8256 3.7951 -31.6350 -1.9927 -7.1250 0.0000 -0.0000 -15.6961 -0.6901 16.5133 0.0000 0.0000 0.0000 78.3470 -18.1154 31.1100 -24.6969 35.8926 -8.1115 0.0000 0.0000 19.7031 -11.4594 -53.8112 9.2916 7.1250 -0.0000 -0.0000 70.1365 -75.7405 -55.7800
8.7408 15.5127 23.3208 -179.0140 4.5201 -178.1750 0.0000 0.0000 0.0000 -24.2201 -22.0963 0.6021 1.5895 7.9529 22.5712 1.3380 11.4987 -28.7223 2.2471 -9.3629 -26.9373 0.0000 0.0000 0.0000 25.2186 13.8638 -3.5508 -1.6924 -8.1936 23.3036 -0.0967 -16.9324 -24.8670 -0.1402 -2.4132 6.6491 0.9712 0.9917 9.1512 0.1937 1.4751 -2.9478 -0.5801 0.6786 -8.2441 -3.8039 -1.6207 -10.6663 3.1892 -1.8014 15.1220 1.5018 -0.7147 6.4166 0.0000 0.0000 0.0000 -79.7368 14.6220 14.6744 18.7757 -29.1390 -4.9211 -0.0000 -0.0000 14.0286 2.8439 -31.6677 -1.4939 -7.1250 0.0000 -0.0000 -16.2228 -0.6315 17.0979 0.0000 0.0000 0.0000 77.4362 -18.1759 33.1922 -24.0461 35.2130 -7.7331 0.0000 0.0000 21.1643 -13.7948 -52.3131 10.9956 7.1250 -0.0000 -0.0000 63.3435 -76.2042 -50.0661
8.7394 15.5142 23.3174 -178.9810 4.6965 -178.1930 0.0000 0.0000 0.0000 -24.2137 -22.0176 0.6895 1.5784 7.9264 22.4908 1.3530 11.5091 -28.8332 2.1939 -9.2588 -26.6081 0.0000 0.0000 0.0000 25.2755 13.8039 -3.6423 -1.7036 -8.2193 23.3823 -0.0747 -17.0256 -24.8005 -0.1297 -2.3214 6.3948 0.9603 0.9950 9.0988 0.2314 1.4812 -2.9567 -0.5341 0.6837 -8.2245 -3.8177 -1.6460 -10.6691 2.8754 -1.7769 15.2686 1.4066 -0.7267 6.4608 0.0000 -0.0000 0.0000 -78.9942 15.1276 16.5747 18.7313 -29.0834 -4.8995 -0.0000 -0.0000 14.1857 1.8272 -31.4101 -0.9525 -7.1250 0.0000 -0.0000 -16.7796 -0.2948 17.6381 0.0000 -0.0000 0.0000 76.5842 -17.9825 35.5860 -23.5499 34.6847 -7.4489 0.0000 0.0000 21.7772 -14.4651 -52.8847 11.6242 7.1250 -0.0000 -0.0000 65.3303 -76.6476 -52.3350
